<?xml version="1.0" encoding="utf-8"?>
<!-- Generator: Adobe Illustrator 21.1.0, SVG Export Plug-In . SVG Version: 6.00 Build 0)  -->
<svg version="1.1" id="Layer_1" xmlns="http://www.w3.org/2000/svg" xmlns:xlink="http://www.w3.org/1999/xlink" x="0px" y="0px"
	 viewBox="0 0 856.8 301.8" style="enable-background:new 0 0 856.8 301.8;" xml:space="preserve">
<style type="text/css">
	.st0{fill:#6A686B;}
	.st1{clip-path:url(#SVGID_2_);fill:#C0BBBD;}
	.st2{clip-path:url(#SVGID_4_);fill:#FFCF00;}
	.st3{clip-path:url(#SVGID_6_);fill:#A29D9F;}
	.st4{clip-path:url(#SVGID_8_);fill:#DEDCDD;}
	.st5{fill:#868183;}
	.st6{fill:#B0ABAD;}
</style>
<g>
	<path class="st0" d="M109.1,13.2c33.1-3,86.7,30.8,79.5,99.8c-2.2,21.9-14.7,32.4-16.3,31.6c-3.5-1.9,2.7-13.6,2.4-28.8
		c-1.3-53.1-40.5-78.1-64.4-77.8c-9.5,0.1-16.5,2.7-19.8-10.2C88.1,18.3,100.3,13.9,109.1,13.2"/>
	<g>
		<g>
			<defs>
				<rect id="SVGID_1_" x="4.4" y="7.9" width="848.5" height="287.7"/>
			</defs>
			<clipPath id="SVGID_2_">
				<use xlink:href="#SVGID_1_"  style="overflow:visible;"/>
			</clipPath>
			<path class="st1" d="M132.6,261.1c-33.1,3-86.7-30.8-79.5-99.8c2.2-21.9,14.7-32.4,16.3-31.6c3.5,1.9-2.7,13.6-2.4,28.8
				c1.3,53.1,40.5,78.1,64.4,77.8c9.5-0.1,16.5-2.7,19.8,10.2C153.6,256,141.5,260.3,132.6,261.1"/>
		</g>
		<g>
			<defs>
				<rect id="SVGID_3_" x="4.4" y="7.9" width="848.5" height="287.7"/>
			</defs>
			<clipPath id="SVGID_4_">
				<use xlink:href="#SVGID_3_"  style="overflow:visible;"/>
			</clipPath>
			<path class="st2" d="M7.6,85.3c14-30.2,70-59.7,126.2-19c17.8,12.9,20.7,29,19.2,29.9c-3.4,2.1-10.4-9.2-23.7-16.4
				c-46.7-25.4-87.9-4-99.5,16.9c-4.7,8.3-5.9,15.6-18.7,12.1C1.6,106.1,3.9,93.4,7.6,85.3"/>
		</g>
		<g>
			<defs>
				<rect id="SVGID_5_" x="4.4" y="7.9" width="848.5" height="287.7"/>
			</defs>
			<clipPath id="SVGID_6_">
				<use xlink:href="#SVGID_5_"  style="overflow:visible;"/>
			</clipPath>
			<path class="st3" d="M234.1,188.9c-14,30.2-70,59.7-126.2,19C90.1,195,87.2,179,88.7,178c3.4-2.1,10.4,9.2,23.7,16.4
				c46.7,25.4,87.9,4,99.5-16.9c4.7-8.3,5.9-15.6,18.7-12.1C240.2,168.2,237.9,180.9,234.1,188.9"/>
		</g>
		<g>
			<defs>
				<rect id="SVGID_7_" x="4.4" y="7.9" width="848.5" height="287.7"/>
			</defs>
			<clipPath id="SVGID_8_">
				<use xlink:href="#SVGID_7_"  style="overflow:visible;"/>
			</clipPath>
			<path class="st4" d="M19.4,209.3C0.3,182.1,2.7,118.9,66.1,90.5c20.1-9,35.4-3.5,35.5-1.7c0.1,4-13.2,4.4-26.1,12.3
				c-45.3,27.7-47.4,74.1-35.2,94.6c4.9,8.2,10.6,12.9,1.1,22.3C34.3,224.9,24.5,216.6,19.4,209.3"/>
		</g>
	</g>
	<path class="st5" d="M222.4,65c19.1,27.2,16.7,90.4-46.7,118.8c-20.1,9-35.4,3.5-35.5,1.7c-0.1-4,13.2-4.4,26.1-12.3
		c45.3-27.7,47.4-74.1,35.2-94.6c-4.9-8.2-10.6-12.9-1.1-22.2C207.4,49.4,217.3,57.7,222.4,65"/>
	<path class="st6" d="M349.3,295.1h-5.9l-5.6-19.7c-0.2-0.9-0.5-2.1-0.9-3.7s-0.6-2.7-0.7-3.4c-0.2,1-0.4,2.2-0.7,3.8
		c-0.3,1.5-0.6,2.7-0.8,3.4l-5.5,19.6h-5.9l-4.3-16.5l-4.3-16.5h5.5l4.7,19.2c0.7,3.1,1.3,5.8,1.6,8.2c0.2-1.3,0.4-2.7,0.7-4.3
		s0.6-2.9,0.9-3.8l5.4-19.3h5.4l5.5,19.4c0.5,1.8,1.1,4.5,1.7,8c0.2-2.2,0.8-4.9,1.6-8.2l4.7-19.2h5.5L349.3,295.1z"/>
	<rect x="376.5" y="262.1" class="st6" width="5.4" height="33"/>
	<polygon class="st6" points="425.2,295.1 401.6,295.1 401.6,291.4 418.2,266.7 402,266.7 402,262.1 424.8,262.1 424.8,265.9 
		408.1,290.5 425.2,290.5 	"/>
	<path class="st6" d="M460.7,281.3l-3.1-9c-0.2-0.6-0.5-1.6-0.9-2.8c-0.4-1.3-0.7-2.2-0.8-2.8c-0.4,1.9-1,3.9-1.8,6.1l-3,8.6h9.6
		V281.3z M465.4,295.1l-3.3-9.2h-12.6l-3.2,9.2h-5.7l12.4-33.2h5.9l12.4,33.2H465.4z"/>
	<path class="st6" d="M494.8,277.5h3.8c2.5,0,4.3-0.5,5.5-1.4c1.1-0.9,1.7-2.3,1.7-4.2c0-1.9-0.6-3.2-1.8-4s-3.1-1.2-5.5-1.2h-3.6
		v10.8H494.8z M494.8,281.9v13.2h-5.4v-33h9.3c4.3,0,7.4,0.8,9.5,2.4c2,1.6,3.1,4,3.1,7.2c0,4.1-2.1,7-6.4,8.8l9.3,14.6h-6.1
		l-7.9-13.2H494.8z"/>
	<path class="st6" d="M554,278.5c0-7.9-3.7-11.9-11.1-11.9h-4.7v24h3.8C550.1,290.6,554,286.5,554,278.5 M559.7,278.3
		c0,5.5-1.5,9.6-4.5,12.5s-7.4,4.3-13.1,4.3h-9.2v-33h10.2c5.3,0,9.3,1.4,12.3,4.2C558.3,269.2,559.7,273.2,559.7,278.3"/>
	<path class="st6" d="M599.7,286.2c0,2.9-1.1,5.2-3.2,6.9c-2.1,1.7-5.1,2.5-8.8,2.5s-6.8-0.6-9.2-1.7v-5.1c1.5,0.7,3.1,1.3,4.8,1.7
		s3.3,0.6,4.7,0.6c2.1,0,3.7-0.4,4.7-1.2s1.5-1.9,1.5-3.3c0-1.2-0.5-2.3-1.4-3.1c-0.9-0.9-2.9-1.9-5.8-3c-3-1.2-5.1-2.6-6.4-4.2
		c-1.2-1.6-1.9-3.4-1.9-5.6c0-2.8,1-4.9,2.9-6.5c2-1.6,4.6-2.4,7.9-2.4c3.2,0,6.3,0.7,9.4,2.1l-1.7,4.4c-2.9-1.2-5.6-1.9-7.9-1.9
		c-1.7,0-3.1,0.4-4,1.1c-0.9,0.8-1.4,1.8-1.4,3c0,0.9,0.2,1.6,0.5,2.2c0.4,0.6,1,1.2,1.8,1.7s2.3,1.3,4.5,2.1c2.4,1,4.2,2,5.3,2.8
		c1.1,0.9,2,1.9,2.5,3C599.5,283.4,599.7,284.7,599.7,286.2"/>
	<path class="st6" d="M650,278.6c0,4.1,0.8,7.2,2.5,9.2c1.6,2.1,4.1,3.2,7.3,3.2s5.6-1,7.3-3.1c1.6-2.1,2.5-5.2,2.5-9.3
		c0-4.1-0.8-7.1-2.4-9.2c-1.6-2.1-4-3.1-7.2-3.1s-5.7,1-7.3,3.1C650.8,271.4,650,274.5,650,278.6 M675.2,278.6c0,5.4-1.3,9.6-4,12.5
		c-2.7,3-6.5,4.5-11.4,4.5c-5,0-8.8-1.5-11.5-4.4c-2.7-3-4-7.2-4-12.6c0-5.5,1.3-9.6,4-12.6c2.7-2.9,6.5-4.4,11.5-4.4
		c4.9,0,8.7,1.5,11.4,4.4C673.9,269,675.2,273.2,675.2,278.6"/>
	<polygon class="st6" points="701.5,295.1 696.2,295.1 696.2,262.1 714.8,262.1 714.8,266.7 701.5,266.7 701.5,277 714,277 
		714,281.6 701.5,281.6 	"/>
	<rect x="760.6" y="262.1" class="st6" width="5.4" height="33"/>
	<path class="st6" d="M802.6,266.3c-3.1,0-5.5,1.1-7.3,3.3c-1.8,2.2-2.7,5.2-2.7,9.1c0,4.1,0.9,7.1,2.6,9.2c1.7,2.1,4.2,3.1,7.4,3.1
		c1.4,0,2.8-0.1,4.1-0.4c1.3-0.3,2.7-0.6,4.1-1.1v4.6c-2.6,1-5.5,1.5-8.8,1.5c-4.8,0-8.5-1.5-11.1-4.4s-3.9-7.1-3.9-12.6
		c0-3.4,0.6-6.4,1.9-9s3.1-4.5,5.5-5.9s5.2-2.1,8.4-2.1c3.4,0,6.5,0.7,9.4,2.1l-1.9,4.5c-1.1-0.5-2.3-1-3.5-1.4
		C805.3,266.5,804,266.3,802.6,266.3"/>
	<polygon class="st6" points="843.2,295.1 837.8,295.1 837.8,266.7 828.1,266.7 828.1,262.1 852.9,262.1 852.9,266.7 843.2,266.7 	
		"/>
	<rect x="564.2" y="56.1" class="st0" width="31.3" height="124.7"/>
	<path class="st0" d="M649.3,180.8h-31V89.6c0-8.5,0.4-15.7,1.1-23.7c14.6-7.8,33.8-11.6,55.9-11.6c44.9,0,49.7,20.1,49.7,47v79.4
		h-31v-76.6c0-17.6-3.2-24.9-24.7-24.9c-6.8,0-14.6,1.2-19.3,3.4c-0.6,5-0.8,11.1-0.8,16.7L649.3,180.8L649.3,180.8z"/>
	<path class="st0" d="M487.7,54.4c-17,0-36.2,3.4-50.2,11.6c-0.8,8-1.1,15.2-1.1,23.7v137.1h31v-128c0-5.6,0.2-11.7,0.8-16.7
		c4.7-2.2,12.6-3.3,19.5-3.3c26.6,0,27.8,19.3,27.8,39.7c0,22.7-0.8,39.5-30.5,39.5c-2.7,0-5.7-0.3-8.7-0.7v24.1
		c5.1,0.7,10.3,1.1,15,1.1c38.4,0,55.5-15.7,55.5-64C546.7,69.5,529.2,54.4,487.7,54.4"/>
	<path class="st0" d="M595.8,23.7c0,8.8-7.1,15.8-15.8,15.8c-8.8,0-15.8-7.1-15.8-15.8S571.3,7.9,580,7.9
		C588.7,7.9,595.8,15,595.8,23.7"/>
	<path class="st0" d="M374.9,124.8c-18.8-5.2-30-7.6-30-24.6s20-17.6,33.1-17.6c12.1,0,25.1,1.9,35.6,3.7V59.2
		c-11.5-2.4-27.7-4.6-43.4-4.6c-37.5,0-58.4,11.8-58.4,48.6c0,32,17.2,41.4,46.5,50.8c15.1,4.8,27.1,8.4,27.1,24.2
		c0,17-10.5,21.1-27.7,21.1c-12.5,0-30.7-2-42.7-3.8v27.9c12.6,2.6,27,4.6,43.9,4.6c38.7,0,60.6-13.5,60.6-50.9
		C419.6,146.1,406.1,133.6,374.9,124.8"/>
	<path class="st0" d="M851.2,65.9c-14-8.2-33.3-11.6-50.2-11.6c-40.7,0-59.1,14.8-59.1,62.7c0,47.4,17.6,62.6,55.5,62.6
		c4.9,0,10.2-0.4,15.5-1.2v-24.1c-3.1,0.5-6.3,0.8-9.1,0.8c-29.3,0-30.5-16.3-30.5-38.1c0-19.5,2.2-38.3,27.9-38.3
		c6.8,0,14.7,1.1,19.4,3.3c0.6,5,0.8,11.1,0.8,16.7l0.2,83.4h-0.2c-0.5,14.3-7.8,21.6-24,21.6c-14.4,0-32.8-1.9-45.2-3.6v23.5
		c13.1,2.2,31.7,4.8,49.1,4.8c27.9,0,51.2-7.8,51.2-40.4V89.6C852.3,81.1,852,73.9,851.2,65.9"/>
</g>
</svg>
